<svg width="124" height="19" viewBox="0 0 124 19" fill="none" xmlns="http://www.w3.org/2000/svg">
<circle opacity="0.81" cx="9" cy="9" r="9" fill="#0ABD9F"/>
<circle opacity="0.81" cx="19" cy="9" r="9" fill="#FFB313"/>
<circle opacity="0.81" cx="29" cy="9" r="9" fill="#F35B44"/>
<path fill-rule="evenodd" clip-rule="evenodd" d="M51.75 14.5C53.034 14.5 54.201 14.161 55.251 13.483C56.301 12.805 57.12 11.896 57.708 10.756L55.422 9.55C55.074 10.294 54.582 10.888 53.946 11.332C53.31 11.776 52.56 11.998 51.696 11.998C50.496 11.998 49.494 11.587 48.69 10.765C47.886 9.943 47.484 8.938 47.484 7.75C47.484 6.538 47.889 5.521 48.699 4.699C49.509 3.877 50.526 3.466 51.75 3.466C53.334 3.466 54.522 4.198 55.314 5.662L57.51 4.258C56.922 3.262 56.118 2.47 55.098 1.882C54.078 1.294 52.962 1 51.75 1C49.842 1 48.24 1.639 46.944 2.917C45.648 4.195 45 5.806 45 7.75C45 9.658 45.627 11.26 46.881 12.556C48.135 13.852 49.758 14.5 51.75 14.5ZM62.892 14.5C64.188 14.5 65.289 14.044 66.195 13.132C67.101 12.22 67.554 11.116 67.554 9.82C67.554 8.524 67.101 7.42 66.195 6.508C65.289 5.596 64.188 5.14 62.892 5.14C61.596 5.14 60.495 5.596 59.589 6.508C58.683 7.42 58.23 8.524 58.23 9.82C58.23 11.116 58.683 12.22 59.589 13.132C60.495 14.044 61.596 14.5 62.892 14.5ZM62.892 12.16C62.256 12.16 61.722 11.932 61.29 11.476C60.858 11.02 60.642 10.468 60.642 9.82C60.642 9.172 60.858 8.62 61.29 8.164C61.722 7.708 62.256 7.48 62.892 7.48C63.516 7.48 64.05 7.711 64.494 8.173C64.938 8.635 65.16 9.184 65.16 9.82C65.16 10.456 64.938 11.005 64.494 11.467C64.05 11.929 63.516 12.16 62.892 12.16ZM71.01 14.32V9.406C71.01 8.686 71.157 8.146 71.451 7.786C71.745 7.426 72.138 7.246 72.63 7.246C73.674 7.246 74.196 7.882 74.196 9.154V14.32H76.698V9.406C76.698 8.686 76.845 8.146 77.139 7.786C77.433 7.426 77.826 7.246 78.318 7.246C79.362 7.246 79.884 7.882 79.884 9.154V14.32H82.386V8.83C82.386 7.654 82.098 6.745 81.522 6.103C80.946 5.461 80.094 5.14 78.966 5.14C77.766 5.14 76.83 5.614 76.158 6.562C75.606 5.614 74.682 5.14 73.386 5.14C72.39 5.14 71.592 5.518 70.992 6.274V5.32H68.544V14.32H71.01ZM86.112 18.46V13.438C86.724 14.146 87.636 14.5 88.848 14.5C89.928 14.5 90.918 14.086 91.818 13.258C92.718 12.43 93.168 11.284 93.168 9.82C93.168 9.052 93.039 8.362 92.781 7.75C92.523 7.138 92.181 6.646 91.755 6.274C91.329 5.90202 90.864 5.62002 90.36 5.428C89.856 5.236 89.34 5.14 88.812 5.14C87.672 5.14 86.772 5.542 86.112 6.346V5.32H83.646V18.46H86.112ZM88.344 12.232C87.684 12.232 87.135 11.995 86.697 11.521C86.259 11.047 86.04 10.474 86.04 9.802C86.04 9.13 86.259 8.56 86.697 8.092C87.135 7.624 87.684 7.39 88.344 7.39C89.028 7.39 89.601 7.618 90.063 8.074C90.525 8.53 90.756 9.106 90.756 9.802C90.756 10.498 90.525 11.077 90.063 11.539C89.601 12.001 89.028 12.232 88.344 12.232ZM98.154 14.5C99.294 14.5 100.2 14.104 100.872 13.312V14.32H103.338V5.32H100.872V6.202C100.2 5.494 99.306 5.14 98.19 5.14C97.47 5.14 96.789 5.302 96.147 5.626C95.505 5.95 94.956 6.478 94.5 7.21C94.044 7.942 93.816 8.812 93.816 9.82C93.816 11.284 94.269 12.43 95.175 13.258C96.081 14.086 97.074 14.5 98.154 14.5ZM98.64 12.232C97.956 12.232 97.383 12.001 96.921 11.539C96.459 11.077 96.228 10.498 96.228 9.802C96.228 9.106 96.459 8.53 96.921 8.074C97.383 7.618 97.956 7.39 98.64 7.39C99.3 7.39 99.849 7.624 100.287 8.092C100.725 8.56 100.944 9.13 100.944 9.802C100.944 10.474 100.725 11.047 100.287 11.521C99.849 11.995 99.3 12.232 98.64 12.232ZM107.064 14.32V9.406C107.064 8.686 107.223 8.146 107.541 7.786C107.859 7.426 108.27 7.246 108.774 7.246C109.314 7.246 109.725 7.411 110.007 7.741C110.289 8.071 110.43 8.542 110.43 9.154V14.32H112.932V8.83C112.932 7.666 112.632 6.76 112.032 6.112C111.432 5.464 110.598 5.14 109.53 5.14C108.498 5.14 107.67 5.536 107.046 6.328V5.32H104.598V14.32H107.064ZM117.99 18.478L123.21 5.32H120.654L118.584 10.864L116.37 5.32H113.778L117.36 13.924L115.524 18.478H117.99Z" fill="#222D38"/>
</svg>
